# xmcd
#
# Track frame offsets: 
#        150
#        30745
#        47421
#        64991
#        83330
#        102094
#        127344
#        141427
#        160247
#        175131
#        193108
#        215599
#        240375
#        263416
#        274601
#
# Disc length: 3965 seconds
#
# Revision: 0
# Processed by: cddbd v1.5.2PL0 Copyright (c) Steve Scherf et al.
# Submitted via: ExactAudioCopy v0.95a5
#
DISCID=cf0f7b0f
DTITLE=Various Artist - Parents-Chind Music:Undersea World
DYEAR=2006
DGENRE=Blues
TTITLE0=Ocean Capriccio
TTITLE1=Luna
TTITLE2=Big Sea
TTITLE3=Fly with the Wind
TTITLE4=Undersea Story
TTITLE5=Blue Nocturne
TTITLE6=Aurora
TTITLE7=Rainbow Bridge
TTITLE8=Little Dolphin
TTITLE9=Gathering in the sea
TTITLE10=Peaceful Seabed
TTITLE11=Sea-maiden
TTITLE12=Daughter of the Sea
TTITLE13=Son of the Sea
TTITLE14=Sanctuary
EXTD=
EXTT0=
EXTT1=
EXTT2=
EXTT3=
EXTT4=
EXTT5=
EXTT6=
EXTT7=
EXTT8=
EXTT9=
EXTT10=
EXTT11=
EXTT12=
EXTT13=
EXTT14=
PLAYORDER=
